Coordinates
version=1
nRows=11
nColumns=63
inDegrees=yes

Units are S.I. units (second, meters, Newtons, ...)
If the header above contains a line with 'inDegrees', this indicates whether rotational values are in degrees (yes) or radians (no).

endheader
time	pelvis_tilt	pelvis_list	pelvis_rotation	pelvis_tx	pelvis_ty	pelvis_tz	hip_flexion_r	hip_adduction_r	hip_rotation_r	knee_angle_r	knee_angle_r_beta	ankle_angle_r	subtalar_angle_r	mtp_angle_r	hip_flexion_l	hip_adduction_l	hip_rotation_l	knee_angle_l	knee_angle_l_beta	ankle_angle_l	subtalar_angle_l	mtp_angle_l	L5_S1_Flex_Ext	L5_S1_Lat_Bending	L5_S1_axial_rotation	L4_L5_Flex_Ext	L4_L5_Lat_Bending	L4_L5_axial_rotation	L3_L4_Flex_Ext	L3_L4_Lat_Bending	L3_L4_axial_rotation	L2_L3_Flex_Ext	L2_L3_Lat_Bending	L2_L3_axial_rotation	L1_L2_Flex_Ext	L1_L2_Lat_Bending	L1_L2_axial_rotation	L1_T12_Flex_Ext	L1_T12_Lat_Bending	L1_T12_axial_rotation	Abs_r3	Abs_r2	Abs_r1	Abs_t1	Abs_t2	neck_flexion	neck_bending	neck_rotation	arm_flex_r	arm_add_r	arm_rot_r	elbow_flex_r	pro_sup_r	wrist_flex_r	wrist_dev_r	arm_flex_l	arm_add_l	arm_rot_l	elbow_flex_l	pro_sup_l	wrist_flex_l	wrist_dev_l
0.000000	-2.887669	-4.659964	108.117402	0.059738	0.959527	0.547065	0.085329	-1.098653	-17.615133	6.562937	0.114545	22.002155	8.874424	0.000000	3.742751	1.254054	6.197575	6.255668	0.109182	24.035110	6.650891	0.000000	0.218815	0.059836	-2.010140	0.406361	0.079582	-2.135774	0.359491	0.145486	-2.135774	0.250083	0.145486	-1.758873	0.203191	0.122018	-1.633239	0.125031	0.092687	-1.507605	1.562973	0.676881	-11.179797	0.000000	0.000000	25.636617	-0.857889	4.659823	16.454662	-11.365390	72.767495	53.381514	12.888717	-9.157440	21.973705	9.309658	-9.884529	43.600865	59.280987	83.890645	22.472752	22.825167
0.016949	-3.064325	-4.555973	107.387842	0.060020	0.959276	0.544968	0.291445	-1.373056	-16.080508	7.317189	0.127709	22.876444	8.231846	0.000000	3.135835	1.440050	5.884428	5.631279	0.098284	24.739289	6.694451	0.000000	0.209728	0.058293	-1.945177	0.389486	0.077529	-2.066751	0.344562	0.141733	-2.066751	0.239698	0.141733	-1.702030	0.194754	0.118871	-1.580456	0.119839	0.090295	-1.458883	1.498067	0.659419	-10.818492	0.000000	0.000000	25.971022	-1.112352	5.169664	15.935587	-11.391903	72.211409	53.683819	15.396487	-9.105436	23.168952	8.482164	-9.930227	42.734151	59.952825	82.577686	20.440598	22.573002
0.033898	-3.208074	-4.461204	106.795827	0.060161	0.959100	0.543122	0.427042	-1.597030	-14.908081	7.890366	0.137713	23.654553	7.855301	0.000000	2.619349	1.588204	5.613722	5.136846	0.089655	25.280236	6.751022	0.000000	0.201065	0.057747	-1.889008	0.373397	0.076803	-2.007071	0.330329	0.140405	-2.007071	0.229797	0.140405	-1.652882	0.186709	0.117757	-1.534819	0.114888	0.089449	-1.416756	1.436185	0.653240	-10.506096	0.000000	0.000000	26.226909	-1.334806	5.524379	15.466974	-11.400682	71.619495	53.893897	17.633776	-9.018321	24.134678	7.806065	-9.938847	42.070462	60.430608	81.570503	18.815077	22.358155
0.050847	-3.321302	-4.374984	106.331306	0.060176	0.958995	0.541508	0.498427	-1.773710	-14.060626	8.297608	0.144821	24.341547	7.710413	0.000000	2.185831	1.701423	5.391129	4.759085	0.083062	25.673497	6.809920	0.000000	0.192854	0.058118	-1.841131	0.358150	0.077297	-1.956202	0.316841	0.141309	-1.956202	0.220413	0.141309	-1.610990	0.179085	0.118515	-1.495919	0.110197	0.090025	-1.380849	1.377540	0.657446	-10.239820	0.000000	0.000000	26.409869	-1.526633	5.738936	15.044304	-11.394415	70.998404	54.022582	19.609074	-8.904146	24.889199	7.269259	-9.914613	41.592339	60.733299	80.837251	17.558329	22.177736
0.067797	-3.406391	-4.296641	105.984232	0.060078	0.958954	0.540106	0.511907	-1.906231	-13.500920	8.554054	0.149296	24.942492	7.762804	0.000000	1.827817	1.782615	5.222320	4.484715	0.078273	25.934621	6.860460	0.000000	0.185127	0.059329	-1.801046	0.343800	0.078907	-1.913612	0.304146	0.144251	-1.913612	0.211582	0.144251	-1.575915	0.171909	0.120983	-1.463350	0.105782	0.091900	-1.350785	1.322347	0.671136	-10.016879	0.000000	0.000000	26.525493	-1.689218	5.828304	14.663056	-11.375792	70.354785	54.080705	21.330876	-8.770963	25.450833	6.859646	-9.861748	41.282322	60.879863	80.346085	16.632496	22.028859
0.084746	-3.465726	-4.225506	105.744555	0.059881	0.958971	0.538897	0.473789	-1.997729	-13.191737	8.674845	0.151405	25.462452	7.978096	0.000000	1.537845	1.834690	5.112966	4.300452	0.075057	26.079155	6.891961	0.000000	0.177914	0.061298	-1.768251	0.330404	0.081526	-1.878767	0.292294	0.149039	-1.878767	0.203338	0.149039	-1.547220	0.165211	0.124998	-1.436704	0.101660	0.094950	-1.326188	1.270820	0.693412	-9.834482	0.000000	0.000000	26.579372	-1.823943	5.807450	14.318711	-11.347503	69.695287	54.079100	22.807674	-8.626821	25.837896	6.565124	-9.784476	41.122953	60.889264	80.065160	15.999721	21.908632
0.101695	-3.501690	-4.160906	105.602226	0.059597	0.959042	0.537863	0.390381	-2.051338	-13.095855	8.675121	0.151409	25.906493	8.321914	0.000000	1.308453	1.860555	5.068738	4.193014	0.073182	26.122647	6.893737	0.000000	0.171243	0.063946	-1.742245	0.318016	0.085049	-1.851135	0.281335	0.155479	-1.851135	0.195714	0.155479	-1.524464	0.159016	0.130399	-1.415574	0.097848	0.099053	-1.306684	1.223173	0.723374	-9.689845	0.000000	0.000000	26.577096	-1.932191	5.691344	14.006749	-11.312235	69.026561	54.028600	24.047960	-8.479773	26.068706	6.373592	-9.687020	41.096772	60.780467	79.962629	15.622145	21.814169
0.118644	-3.516669	-4.102169	105.547197	0.059242	0.959161	0.536982	0.267991	-2.070193	-13.176048	8.570021	0.149575	26.279681	8.759878	0.000000	1.132178	1.863118	5.095307	4.149118	0.072416	26.080644	6.855104	0.000000	0.165146	0.067195	-1.722527	0.306692	0.089369	-1.830185	0.271318	0.163378	-1.830185	0.188745	0.163378	-1.507211	0.153354	0.137024	-1.399553	0.094364	0.104085	-1.291895	1.179621	0.760122	-9.580177	0.000000	0.000000	26.524257	-2.015347	5.494954	13.722649	-11.272680	68.355256	53.940038	25.060227	-8.337870	26.161580	6.272949	-9.573604	41.186320	60.572436	80.006649	15.461909	21.742580
0.135593	-3.513045	-4.048625	105.569419	0.058828	0.959321	0.536237	0.112926	-2.057428	-13.395092	8.374686	0.146166	26.587080	9.257613	0.000000	1.001558	1.845290	5.198345	4.155480	0.072527	25.968694	6.765381	0.000000	0.159652	0.070964	-1.708595	0.296490	0.094382	-1.815382	0.262292	0.172542	-1.815382	0.182466	0.172542	-1.495021	0.148253	0.144710	-1.388233	0.091225	0.109923	-1.281446	1.140377	0.802758	-9.502693	0.000000	0.000000	26.426444	-2.074793	5.233250	13.461893	-11.231525	67.688021	53.824246	25.852969	-8.209161	26.134834	6.251093	-9.448450	41.374137	60.284135	80.165372	15.481155	21.690976
0.152542	-3.493203	-3.999602	105.658843	0.058369	0.959517	0.535607	-0.068507	-2.016180	-13.715763	8.104256	0.141446	26.833756	9.780740	0.000000	0.909130	1.809977	5.383523	4.198819	0.073283	25.802344	6.613882	0.000000	0.154791	0.075174	-1.699949	0.287463	0.099981	-1.806195	0.254306	0.182778	-1.806195	0.176911	0.182778	-1.487455	0.143739	0.153295	-1.381208	0.088448	0.116444	-1.274961	1.105658	0.850382	-9.454604	0.000000	0.000000	26.289248	-2.111913	4.921199	13.219958	-11.191460	67.031507	53.692058	26.434677	-8.101699	26.006785	6.295923	-9.315784	41.642764	59.934529	80.406955	15.642025	21.656468
0.169492	-3.459526	-3.954428	105.805419	0.057878	0.959743	0.535073	-0.270001	-1.949582	-14.100836	7.773871	0.135680	27.024774	10.294883	0.000000	0.847431	1.760088	5.656511	4.265851	0.074453	25.597141	6.389924	0.000000	0.150594	0.079745	-1.696086	0.279667	0.106061	-1.802092	0.247410	0.193892	-1.802092	0.172113	0.193892	-1.484075	0.139841	0.162616	-1.378070	0.086049	0.123525	-1.272065	1.075675	0.902093	-9.433122	0.000000	0.000000	26.118261	-2.128091	4.573770	12.992327	-11.155175	66.392362	53.554306	26.813844	-8.023534	25.795751	6.395338	-9.179828	41.974742	59.542582	80.699552	15.906661	21.636168
